<?xml version="1.0" encoding="UTF-8"?>
<svg width="200" height="200" version="1.1" viewBox="0 0 200 200" xmlns="http://www.w3.org/2000/svg">
 <g transform="matrix(2 0 0 2 7.9982 .00023685)" fill="#fc0">
  <path d="m19.858 99.829c-1.4056-0.96844-1.6622-2.4393-1.9156-5.2451s1.5248-23.952 6.5281-47.599c1.8758-8.8668 3.7864-18.256 6.8311-25.843 1.7252-4.2999 2.9454-8.1322 4.6771-11.313 3.3642-6.1754 6.8642-9.8983 7.1722-9.8286 1.6026 0.36648 6.7699 4.0644 10.469 9.5666 3.697 5.5022 18.23 30.293 14.866 30.055-0.49006-0.03482-2.3361 0.14427-3.7235-1.1343-1.0033-0.92698-9.8692-15.105-11.44-17.346-1.7318-2.4675-7.1242-9.5517-8.9271-9.235-0.64238 0.11276-5.7218 7.129-9.3973 21.7-2.298 9.1172-4.6407 17.029-7.8129 36.015-3.1722 18.986-2.8626 18.215-2.2798 18.684 0.03642 0.02819 1.0513-0.52568 3.0447-1.6649 4.9652-2.839 9.5364-6.3214 13.593-10.358-0.07285 0.07131 1.596-1.3996 5.0033-4.4127 11.72-10.363 14.541-13.731 14.675-14.682 0.06291-0.44939-1.0662-3.0313-3.3858-7.7475-0.81622-1.6599 0.04801-3.6565 1.8162-4.1955 2.4934-0.75784 4.6059-1.2437 6.3361-1.4527 1.3079-0.15754 2.9404-0.03317 4.8973 0.37311 3.1722 0.65834 5.9106 2.6499 7.5165 5.469 1.1622 2.038 0.46026 0.80592 1.207 2.116 3.0629 5.3728 5.5927 11.033 7.5513 16.9 0.28146 0.84572-0.02152-0.06467 0.70861 2.1243 0.46689 1.3996 0.81457 2.8373 1.0397 4.2966 0.05464 0.35321 0.1904 1.2354 0.40894 2.645-3.9851-4.6084-7.7136-8.4788-11.185-11.611-3.4718-3.1342-6.6871-5.5287-9.6457-7.187-28.21 29.126-44.419 42.764-48.627 40.911" stroke-width=".53022"/>
  <path d="m80.452 28.647c0.53475-1.6036 0.38409-3.8872 0-4.3052-1.6456-1.7911-6.4186 0.1592-19.269 4.3052-12.849 4.1459-18.506 6.1939-31.814 11.924-13.306 5.7297-19.061 8.6433-19.048 10.519 0.009933 1.8756 15.074 10.998 29.023 16.883 13.95 5.8839 23.141 9.1939 27.927 10.64 9.8358 2.9734 14.66 3.1177 14.566 4.078-0.09437 0.96019-7.7612 1.3068-13.051 0.59203-5.2895-0.71641-11.95-2.1309-22.903-6.1791-10.953-4.0464-9.6784-3.7728-21.858-9.5372-12.178-5.7661-24.205-16.005-24.02-17.316 0.18211-1.3101 17.648-12.575 45.084-22.908 15.988-6.0214 26.645-9.31 31.97-9.8672 3.1753-0.33167 6.3772-0.29684 9.5459 0.10448 1.1026 0.1393 0.01491 0.0017 1.2102 0.15257 2.1356 0.27031 3.3972 2.5356 2.5066 4.4991-0.93044 2.0481 0.12251-0.27031-0.29469 0.65008-2.8592 6.2967-7.2431 11.778-12.751 15.947-0.95692 0.7247 0.62416-0.47097-1.3178 0.99833-0.67712 0.51244-1.5546-0.3068-1.091-1.0199 3.0016-4.6053 4.8641-7.9916 5.5859-10.159z" stroke-width=".5"/>
 </g>
</svg>
