<svg width="512" height="512" xmlns="http://www.w3.org/2000/svg">

 <g>
  <title>background</title>
  <rect fill="none" id="canvas_background" height="402" width="582" y="-1" x="-1"/>
 </g>
 <g>
  <title>Layer 1</title>
  <path fill="#eeeeee" id="svg_1" d="m288,192l0,-38.100006c0,-17.199997 3.799988,-25.899994 30.5,-25.899994l33.5,0l0,-64l-55.899994,0c-68.5,0 -91.100006,31.400002 -91.100006,85.300003l0,42.699997l-45,0l0,64l45,0l0,192l83,0l0,-192l56.399994,0l7.600006,-64l-64,0zm42.200012,48l-41.100006,0l-17.100006,0l0,15.5l0,176.5l-51,0l0,-176.5l0,-15.5l-14.899994,0l-30.100006,0l0,-32l30.100006,0l14.899994,0l0,-16.5l0,-42.199997c0,-24.5 5.399994,-41.200005 15.5,-51.800003c11.199997,-12 31.100006,-17.5 59.600006,-17.5l39.899994,0l0,32l-17.5,0c-12,0 -27.5,1.099998 -37.100006,11.699997c-8.100006,9 -9.399994,20.100006 -9.399994,30.100006l0,37.599991l0,16.600006l17.100006,0l44.899994,0l-3.799988,32z"/>
 </g>
</svg>