<?xml version="1.0" encoding="UTF-8"?>
<svg xmlns="http://www.w3.org/2000/svg" xmlns:xlink="http://www.w3.org/1999/xlink" width="100pt" height="100pt" viewBox="0 0 100 100" version="1.1">
<g id="surface1">
<path style=" stroke:none;fill-rule:nonzero;fill:rgb(93.333333%,93.333333%,93.333333%);fill-opacity:1;" d="M 56.25 37.5 L 56.25 30.058594 C 56.25 26.699219 56.992188 25 62.207031 25 L 68.75 25 L 68.75 12.5 L 57.832031 12.5 C 44.453125 12.5 40.039062 18.632812 40.039062 29.160156 L 40.039062 37.5 L 31.25 37.5 L 31.25 50 L 40.039062 50 L 40.039062 87.5 L 56.25 87.5 L 56.25 50 L 67.265625 50 L 68.75 37.5 Z M 64.492188 46.875 L 53.125 46.875 L 53.125 84.375 L 43.164062 84.375 L 43.164062 46.875 L 34.375 46.875 L 34.375 40.625 L 43.164062 40.625 L 43.164062 29.160156 C 43.164062 24.375 44.21875 21.113281 46.191406 19.042969 C 48.378906 16.699219 52.265625 15.625 57.832031 15.625 L 65.625 15.625 L 65.625 21.875 L 62.207031 21.875 C 59.863281 21.875 56.835938 22.089844 54.960938 24.160156 C 53.378906 25.917969 53.125 28.085938 53.125 30.039062 L 53.125 40.625 L 65.234375 40.625 Z M 64.492188 46.875 "/>
</g>
</svg>
