<?xml version="1.0" encoding="UTF-8"?>
<svg xmlns="http://www.w3.org/2000/svg" xmlns:xlink="http://www.w3.org/1999/xlink" width="100pt" height="100pt" viewBox="0 0 100 100" version="1.1">
<g id="surface1">
<path style=" stroke:none;fill-rule:nonzero;fill:rgb(93.333333%,93.333333%,93.333333%);fill-opacity:1;" d="M 69.53125 14.0625 C 78.589844 14.070312 85.929688 21.410156 85.9375 30.46875 L 85.9375 69.53125 C 85.929688 78.589844 78.589844 85.929688 69.53125 85.9375 L 30.46875 85.9375 C 21.410156 85.929688 14.070312 78.589844 14.0625 69.53125 L 14.0625 30.46875 C 14.070312 21.410156 21.410156 14.070312 30.46875 14.0625 L 69.53125 14.0625 M 69.53125 10.9375 L 30.46875 10.9375 C 19.683594 10.9375 10.9375 19.683594 10.9375 30.46875 L 10.9375 69.53125 C 10.9375 80.316406 19.683594 89.0625 30.46875 89.0625 L 69.53125 89.0625 C 80.316406 89.0625 89.0625 80.316406 89.0625 69.53125 L 89.0625 30.46875 C 89.0625 19.683594 80.316406 10.9375 69.53125 10.9375 Z M 69.53125 10.9375 "/>
<path style=" stroke:none;fill-rule:nonzero;fill:rgb(93.333333%,93.333333%,93.333333%);fill-opacity:1;" d="M 50 34.375 C 58.628906 34.375 65.625 41.371094 65.625 50 C 65.625 58.628906 58.628906 65.625 50 65.625 C 41.371094 65.625 34.375 58.628906 34.375 50 C 34.375 41.371094 41.371094 34.375 50 34.375 M 50 31.25 C 39.644531 31.25 31.25 39.644531 31.25 50 C 31.25 60.355469 39.644531 68.75 50 68.75 C 60.355469 68.75 68.75 60.355469 68.75 50 C 68.75 39.644531 60.355469 31.25 50 31.25 Z M 50 31.25 "/>
<path style=" stroke:none;fill-rule:nonzero;fill:rgb(93.333333%,93.333333%,93.333333%);fill-opacity:1;" d="M 71.875 23.4375 C 73.601562 23.4375 75 24.835938 75 26.5625 C 75 28.289062 73.601562 29.6875 71.875 29.6875 C 70.148438 29.6875 68.75 28.289062 68.75 26.5625 C 68.75 24.835938 70.148438 23.4375 71.875 23.4375 M 71.875 20.3125 C 68.421875 20.3125 65.625 23.109375 65.625 26.5625 C 65.625 30.015625 68.421875 32.8125 71.875 32.8125 C 75.328125 32.8125 78.125 30.015625 78.125 26.5625 C 78.125 23.109375 75.328125 20.3125 71.875 20.3125 Z M 71.875 20.3125 "/>
</g>
</svg>
