<?xml version="1.0" encoding="UTF-8"?>
<svg width="2200" height="600" version="1.1" viewBox="0 0 2200 600" xmlns="http://www.w3.org/2000/svg">
 <g>
  <g fill="#fc0">
   <g transform="matrix(.99334 0 0 .99334 -28.978 -21.211)">
    <g fill="#fc0">
     <path d="m149.62 623.87c-8.49-5.84-10.04-14.71-11.57-31.63s9.21-144.44 39.43-287.04c11.33-53.47 22.87-110.09 41.26-155.84 10.42-25.93 17.79-49.04 28.25-68.22 20.32-37.24 41.46-59.69 43.32-59.27 9.68 2.21 40.89 24.51 63.23 57.69 22.33 33.18 110.11 182.68 89.79 181.24-2.96-0.21-14.11 0.87-22.49-6.84-6.06-5.59-59.61-91.09-69.1-104.6-10.46-14.88-43.03-57.6-53.92-55.69-3.88 0.68-34.56 42.99-56.76 130.86-13.88 54.98-28.03 102.69-47.19 217.18s-17.29 109.84-13.77 112.67c0.22 0.17 6.35-3.17 18.39-10.04 29.99-17.12 57.6-38.12 82.1-62.46-0.44 0.43 9.64-8.44 30.22-26.61 70.79-62.49 87.83-82.8 88.64-88.54 0.38-2.71-6.44-18.28-20.45-46.72-4.93-10.01 0.29-22.05 10.97-25.3 15.06-4.57 27.82-7.5 38.27-8.76 7.9-0.95 17.76-0.2 29.58 2.25 19.16 3.97 35.7 15.98 45.4 32.98 7.02 12.29 2.78 4.86 7.29 12.76 18.5 32.4 33.78 66.53 45.61 101.91 1.7 5.1-0.13-0.39 4.28 12.81 2.82 8.44 4.92 17.11 6.28 25.91 0.33 2.13 1.15 7.45 2.47 15.95-24.07-27.79-46.59-51.13-67.56-70.02-20.97-18.9-40.39-33.34-58.26-43.34-170.39 175.64-268.29 257.88-293.71 246.71" fill="#fc0"/>
    </g>
    <path d="m515.62 194.61c3.23-9.67 2.32-23.44 0-25.96-9.94-10.8-38.77 0.96-116.39 25.96-77.61 25-111.78 37.35-192.16 71.9-80.37 34.55-115.13 52.12-115.06 63.43 0.06 11.31 91.05 66.32 175.31 101.8s139.77 55.44 168.68 64.16c59.41 17.93 88.55 18.8 87.98 24.59s-46.88 7.88-78.83 3.57c-31.95-4.32-72.18-12.85-138.34-37.26-66.16-24.4-58.46-22.75-132.03-57.51-73.56-34.77-146.2-96.51-145.09-104.41 1.1-7.9 106.6-75.83 272.32-138.14 96.57-36.31 160.94-56.14 193.11-59.5 19.18-2 38.52-1.79 57.66 0.63 6.66 0.84 0.09 0.01 7.31 0.92 12.9 1.63 20.52 15.29 15.14 27.13-5.62 12.35 0.74-1.63-1.78 3.92-17.27 37.97-43.75 71.02-77.02 96.16-5.78 4.37 3.77-2.84-7.96 6.02-4.09 3.09-9.39-1.85-6.59-6.15 18.13-27.77 29.38-48.19 33.74-61.26z"/>
    <path d="m149.62 623.87c-8.49-5.84-10.04-14.71-11.57-31.63s9.21-144.44 39.43-287.04c11.33-53.47 22.87-110.09 41.26-155.84 10.42-25.93 17.79-49.04 28.25-68.22 20.32-37.24 41.46-59.69 43.32-59.27 9.68 2.21 40.89 24.51 63.23 57.69 22.33 33.18 110.11 182.68 89.79 181.24-2.96-0.21-14.11 0.87-22.49-6.84-6.06-5.59-59.61-91.09-69.1-104.6-10.46-14.88-43.03-57.6-53.92-55.69-3.88 0.68-34.56 42.99-56.76 130.86-13.88 54.98-28.03 102.69-47.19 217.18s-17.29 109.84-13.77 112.67c0.22 0.17 6.35-3.17 18.39-10.04 29.99-17.12 57.6-38.12 82.1-62.46-0.44 0.43 9.64-8.44 30.22-26.61 70.79-62.49 87.83-82.8 88.64-88.54 0.38-2.71-6.44-18.28-20.45-46.72-4.93-10.01 0.29-22.05 10.97-25.3 15.06-4.57 27.82-7.5 38.27-8.76 7.9-0.95 17.76-0.2 29.58 2.25 19.16 3.97 35.7 15.98 45.4 32.98 7.02 12.29 2.78 4.86 7.29 12.76 18.5 32.4 33.78 66.53 45.61 101.91 1.7 5.1-0.13-0.39 4.28 12.81 2.82 8.44 4.92 17.11 6.28 25.91 0.33 2.13 1.15 7.45 2.47 15.95-24.07-27.79-46.59-51.13-67.56-70.02-20.97-18.9-40.39-33.34-58.26-43.34-170.39 175.64-268.29 257.88-293.71 246.71"/>
    <path d="m515.62 194.61c3.23-9.67 2.32-23.44 0-25.96-9.94-10.8-38.77 0.96-116.39 25.96-77.61 25-111.78 37.35-192.16 71.9-80.37 34.55-115.13 52.12-115.06 63.43 0.06 11.31 91.05 66.32 175.31 101.8s139.77 55.44 168.68 64.16c59.41 17.93 88.55 18.8 87.98 24.59s-46.88 7.88-78.83 3.57c-31.95-4.32-72.18-12.85-138.34-37.26-66.16-24.4-58.46-22.75-132.03-57.51-73.56-34.77-146.2-96.51-145.09-104.41 1.1-7.9 106.6-75.83 272.32-138.14 96.57-36.31 160.94-56.14 193.11-59.5 19.18-2 38.52-1.79 57.66 0.63 6.66 0.84 0.09 0.01 7.31 0.92 12.9 1.63 20.52 15.29 15.14 27.13-5.62 12.35 0.74-1.63-1.78 3.92-17.27 37.97-43.75 71.02-77.02 96.16-5.78 4.37 3.77-2.84-7.96 6.02-4.09 3.09-9.39-1.85-6.59-6.15 18.13-27.77 29.38-48.19 33.74-61.26z"/>
   </g>
   <g transform="translate(16.512)" stroke-opacity="0">
    <g aria-label="Queen’s College">
     <path d="m654.11 217.61 16.04-20.325 61.743 46.802-16.04 20.435zm4.7241 45.923q-17.358 0-30.652-7.251-13.184-7.3608-20.435-20.654-7.251-13.403-7.251-30.981v-45.264q0-17.578 7.251-30.872 7.251-13.403 20.435-20.654 13.293-7.3608 30.652-7.3608t30.542 7.3608q13.293 7.251 20.544 20.654 7.251 13.293 7.251 30.872v45.264q0 17.578-7.251 30.981-7.251 13.293-20.544 20.654-13.184 7.251-30.542 7.251zm0-30.103q8.1299 0 14.282-3.4058 6.1523-3.5156 9.4482-9.8877 3.4058-6.3721 3.4058-14.722v-46.802q0-8.3496-3.4058-14.722-3.2959-6.3721-9.4482-9.7778-6.1523-3.5156-14.282-3.5156-8.1299 0-14.282 3.5156-6.1524 3.4058-9.5581 9.7778-3.2959 6.3721-3.2959 14.722v46.802q0 8.3496 3.2959 14.722 3.4058 6.3721 9.5581 9.8877 6.1523 3.4058 14.282 3.4058z"/>
     <path d="m814.45 147.85h29.993v114.04h-29.993zm-35.376 69.324q0 8.2398 4.6143 12.854 4.7241 4.5044 13.184 4.5044 8.4595 0 12.964-4.6142 4.6143-4.7241 4.6143-13.403l1.5381 24.939q-3.186 9.3384-10.657 15.71-7.3608 6.3721-18.018 6.3721-18.347 0-28.345-11.755-9.9976-11.865-9.9976-33.508v-70.422h30.103z"/>
     <path d="m923.6 263.54q-16.48 0-28.235-5.9326-11.646-6.0425-17.798-17.468-6.1523-11.536-6.1523-27.686v-12.854q0-16.919 5.8228-28.894 5.9326-11.975 17.139-18.237 11.316-6.2622 27.246-6.2622 14.941 0 25.598 7.4707 10.657 7.4707 16.15 21.753 5.603 14.172 5.603 34.277v7.4707h-78.003v-20.325h50.537l-0.32959-2.6367q-1.2085-9.8877-6.2622-15.271-4.9438-5.3833-13.293-5.3833-10.876 0-16.919 6.4819-5.9326 6.4819-5.9326 18.347v14.502q0 11.646 6.4819 18.018 6.5918 6.3721 18.347 6.3721 6.0425 0 11.975-2.0874 5.9326-2.1973 10.767-6.1523l19.666 17.468q-8.8989 8.1299-19.995 12.634-11.096 4.3945-22.412 4.3945z"/>
     <path d="m1044.8 263.54q-16.48 0-28.235-5.9326-11.646-6.0425-17.798-17.468-6.1523-11.536-6.1523-27.686v-12.854q0-16.919 5.8228-28.894 5.9326-11.975 17.139-18.237 11.316-6.2622 27.246-6.2622 14.942 0 25.598 7.4707 10.657 7.4707 16.15 21.753 5.603 14.172 5.603 34.277v7.4707h-78.003v-20.325h50.537l-0.3296-2.6367q-1.2085-9.8877-6.2622-15.271-4.9438-5.3833-13.294-5.3833-10.876 0-16.919 6.4819-5.9326 6.4819-5.9326 18.347v14.502q0 11.646 6.4819 18.018 6.5918 6.3721 18.347 6.3721 6.0425 0 11.975-2.0874 5.9326-2.1973 10.767-6.1523l19.666 17.468q-8.8989 8.1299-19.995 12.634-11.096 4.3945-22.412 4.3945z"/>
     <path d="m1117.2 147.85h30.103v114.04h-30.103zm65.918 44.934q0-8.3496-4.834-12.964-4.7241-4.6143-13.513-4.6143-8.3496 0-12.964 4.7241-4.5044 4.6143-4.5044 13.074l-2.3071-25.269q5.1635-10.767 12.305-16.15 7.251-5.3833 18.128-5.3833 18.018 0 27.905 12.195 9.8877 12.085 9.8877 34.277v69.214h-30.103z"/>
     <path d="m1228.6 102.15h30.102v39.331l-30.102 28.784z"/>
     <path d="m1315.6 263.54q-10.217 0-19.885-1.7578-9.6679-1.8677-18.127-5.3833-8.4595-3.5156-14.941-8.4595l18.567-23.181q8.2397 5.2734 17.248 8.1299 9.0088 2.8564 17.139 2.8564 10.547 0 16.37-2.3071 5.8228-2.417 5.8228-6.5918 0-3.8452-2.5269-5.8228-2.5268-1.9775-6.4819-2.7466-3.9551-0.87891-11.096-1.5381-1.9776-0.21973-4.065-0.43945-1.9775-0.21973-4.0649-0.43945-0.4394-0.10987-0.9888-0.10987-0.4394-0.10986-0.8789-0.10986-12.744-1.648-20.434-4.0649-7.6905-2.417-13.074-9.2285-5.2734-6.9214-5.2734-19.995 0-11.426 5.4932-19.556 5.4931-8.1299 15.93-12.305 10.437-4.2847 25.269-4.2847 8.6792 0 17.248 1.7578 8.6792 1.7578 16.589 5.0537 7.9101 3.2959 14.612 7.9102l-17.908 21.863q-7.4707-4.1748-15.601-6.4819-8.1299-2.3071-15.601-2.3071-9.1186 0-14.172 2.0874-5.0537 2.0874-5.0537 5.8228 0 2.8564 2.6367 4.5044 2.7466 1.5381 6.7017 2.3071 4.065 0.65918 11.755 1.5381 0.9888 0.10986 1.9775 0.21973 0.9888 0.10986 1.9776 0.21972 0.4394 0.10987 0.9887 0.10987t0.9888 0.10986q13.294 1.5381 21.643 3.9551t14.172 9.668q5.9326 7.251 5.9326 21.313 0 11.865-5.7128 20.325-5.7129 8.4595-16.699 12.964-10.986 4.3945-26.477 4.3945z"/>
     <path d="m1507.7 263.54q-18.237 0-31.201-6.9214-12.964-7.0312-19.775-20.325-6.8116-13.403-6.8116-32.3v-43.835q0-18.896 6.8116-32.19 6.8115-13.403 19.775-20.435 12.964-7.0312 31.201-7.0312 15.051 0 26.916 6.4819 11.865 6.4819 19.556 18.896 7.8003 12.305 10.767 29.773h-31.201q-1.7578-7.9102-5.4931-13.513-3.6255-5.603-8.899-8.5693-5.1635-2.9663-11.646-2.9663-8.4594 0-14.392 3.5156-5.9326 3.4058-9.1186 10.107-3.0762 6.5918-3.0762 15.93v43.835q0 9.3384 3.0762 15.93 3.186 6.5918 9.1186 10.107 5.9327 3.4058 14.392 3.4058 6.5918 0 11.865-2.8564 5.2734-2.9663 8.8989-8.5693t5.2734-13.623h31.201q-3.0762 17.468-10.876 29.883-7.6904 12.305-19.556 18.787-11.755 6.4819-26.807 6.4819z"/>
     <path d="m1636.8 263.54q-15.6 0-26.697-5.8228-10.986-5.8228-16.809-16.919-5.7129-11.206-5.7129-26.916v-18.567q0-15.491 5.7129-26.477 5.8227-11.096 16.809-16.809 11.096-5.8228 26.697-5.8228 15.601 0 26.587 5.8228 11.096 5.7129 16.809 16.809 5.8228 10.986 5.8228 26.477v18.896q0 15.601-5.8228 26.697-5.7129 10.986-16.809 16.809-10.986 5.8228-26.587 5.8228zm-0.1098-29.004q9.1186 0 14.172-5.2734 5.0537-5.3833 5.0537-15.051v-18.896q0-9.5581-5.0537-14.832t-14.172-5.2734q-9.0088 0-14.062 5.2734-4.9439 5.2734-4.9439 14.832v18.896q0 9.668 4.9439 15.051 4.9438 5.2734 14.062 5.2734z"/>
     <path d="m1744.2 224.21q0 4.1748 2.3071 6.4819 2.417 2.1973 6.8115 2.1973h5.0537v29.004h-15.381q-13.733 0-21.314-7.9102-7.5806-7.9102-7.5806-22.302v-129.53h30.103z"/>
     <path d="m1809.9 224.21q0 4.1748 2.3071 6.4819 2.417 2.1973 6.8115 2.1973h5.0537v29.004h-15.381q-13.733 0-21.314-7.9102-7.5806-7.9102-7.5806-22.302v-129.53h30.103z"/>
     <path d="m1894.4 263.54q-16.48 0-28.235-5.9326-11.646-6.0425-17.798-17.468-6.1524-11.536-6.1524-27.686v-12.854q0-16.919 5.8228-28.894 5.9326-11.975 17.139-18.237 11.316-6.2622 27.246-6.2622 14.941 0 25.598 7.4707 10.657 7.4707 16.15 21.753 5.603 14.172 5.603 34.277v7.4707h-78.003v-20.325h50.537l-0.3296-2.6367q-1.2085-9.8877-6.2622-15.271-4.9438-5.3833-13.293-5.3833-10.876 0-16.919 6.4819-5.9326 6.4819-5.9326 18.347v14.502q0 11.646 6.4819 18.018 6.5918 6.3721 18.347 6.3721 6.0425 0 11.975-2.0874 5.9326-2.1973 10.767-6.1523l19.666 17.468q-8.8989 8.1299-19.995 12.634-11.096 4.3945-22.412 4.3945z"/>
     <path d="m2007.2 308.25q-13.623 0-24.39-4.834-10.657-4.7241-16.589-13.403l20.215-18.567q3.8452 4.1748 9.2285 6.3721 5.3833 2.3071 11.206 2.3071 9.4482 0 15.381-5.1636 6.0424-5.1636 6.0424-14.282v-112.83h30.103v110.63q0 15.71-6.0425 26.916-5.9326 11.206-17.468 17.029-11.426 5.8228-27.686 5.8228zm-5.3833-44.714q-12.085 0-20.764-5.8228-8.5693-5.8228-13.074-16.809-4.5044-11.096-4.5044-26.697v-18.237q0-15.71 4.5044-26.916 4.5044-11.206 13.074-17.029 8.6792-5.8228 20.764-5.8228 9.1186 0 16.589 5.4932 7.5806 5.3833 12.195 15.381l-2.3072 25.269q0-5.8228-1.9775-9.8877t-5.8228-6.1524q-3.7353-2.1973-9.1186-2.1973-8.4595 0-13.184 5.8228-4.6143 5.7129-4.6143 16.15v18.127q0 10.217 4.6143 15.82 4.7241 5.603 13.184 5.603 5.3833 0 9.1186-2.0874 3.8453-2.0874 5.8228-6.0425t1.9775-9.5581l1.5381 26.038q-3.5156 9.3384-10.767 14.502-7.2509 5.0537-17.248 5.0537z"/>
     <path d="m2137.6 263.54q-16.48 0-28.235-5.9326-11.646-6.0425-17.798-17.468-6.1524-11.536-6.1524-27.686v-12.854q0-16.919 5.8228-28.894 5.9326-11.975 17.139-18.237 11.316-6.2622 27.246-6.2622 14.941 0 25.598 7.4707 10.657 7.4707 16.15 21.753 5.603 14.172 5.603 34.277v7.4707h-78.003v-20.325h50.537l-0.3296-2.6367q-1.2085-9.8877-6.2622-15.271-4.9438-5.3833-13.293-5.3833-10.876 0-16.919 6.4819-5.9326 6.4819-5.9326 18.347v14.502q0 11.646 6.4819 18.018 6.5918 6.3721 18.347 6.3721 6.0425 0 11.975-2.0874 5.9326-2.1973 10.767-6.1523l19.666 17.468q-8.8989 8.1299-19.995 12.634-11.096 4.3945-22.412 4.3945z"/>
    </g>
    <g aria-label="Astronomers’ Club">
     <path d="m653.82 337.96h16.992l53.32 141.99h-25.098l-36.719-105.76-36.719 105.76h-25.098zm-28.223 92.676h74.707v22.363h-74.707z"/>
     <path d="m775.02 481.42q-9.082 0-17.285-1.6602-8.2031-1.7578-15.43-5.0781-7.1289-3.3203-12.891-8.1055l14.16-17.578q7.7148 5.4688 15.723 8.3008 8.1055 2.832 15.723 2.832 10.645 0 16.113-2.832 5.5664-2.9297 5.5664-8.3984 0-4.1992-2.7344-6.25-2.7344-2.1484-6.9336-2.9297-4.1016-0.78125-11.621-1.4648-1.2695-0.0976-2.6367-0.19531-1.3672-0.0977-2.6367-0.29297-0.39062 0-0.78125 0-0.39062-0.0977-0.78125-0.0977-10.645-1.1719-17.48-3.2226-6.8359-2.1484-11.523-8.1055-4.5898-5.957-4.5898-17.09 0-10.449 4.5898-17.578 4.6875-7.2266 13.672-10.84 8.9844-3.7109 22.07-3.7109 7.8125 0 15.234 1.5625 7.4219 1.4648 14.16 4.3945 6.8359 2.832 12.891 7.1289l-13.965 16.992q-7.1289-4.2969-14.453-6.543-7.2266-2.2461-14.062-2.2461-9.1797 0-13.965 2.6367-4.7852 2.6367-4.7852 7.8125 0 3.3203 2.6367 5.0781 2.6367 1.7578 6.543 2.4414 4.0039 0.58594 11.523 1.2695 0.78125 0.0977 1.4648 0.19532 0.78125 0 1.5625 0.0976 0.29297 0 0.68359 0 0.39063 0 0.78125 0.0977 11.23 1.0742 18.652 3.2226 7.4219 2.1484 12.598 8.5938 5.1758 6.3477 5.1758 18.555 0 10.742-4.8828 18.164-4.8828 7.3242-14.551 11.133-9.5703 3.7109-23.535 3.7109z"/>
     <path d="m864.77 480.45q-12.793 0-18.75-6.7383-5.957-6.8359-5.957-20.117v-104.49h23.34v101.27q0 3.7109 1.4648 5.7617 1.4648 1.9531 4.2969 1.9531h8.1055v22.363zm-35.156-101.86h47.656v20.41h-47.656z"/>
     <path d="m898.66 378.59h24.316v101.37h-24.316zm56.445 26.074q-2.3438-2.5391-5.7617-3.8086-3.418-1.3672-7.9102-1.3672-8.7891 0-13.672 5.2734-4.7852 5.1758-4.7852 14.453l-2.0508-22.949q4.3945-9.082 11.426-14.062 7.1289-5.0781 15.625-5.0781 6.6406 0 12.012 2.0508 5.3711 1.9531 9.375 5.8594z"/>
     <path d="m1017.9 481.42q-13.476 0-23.144-5.1758-9.5703-5.1758-14.648-15.039-4.9805-9.9609-4.9805-23.926v-16.504q0-13.77 4.9805-23.535 5.0781-9.8633 14.648-14.941 9.668-5.1758 23.144-5.1758 13.477 0 23.047 5.1758 9.668 5.0781 14.648 14.941 5.0781 9.7656 5.0781 23.535v16.797q0 13.867-5.0781 23.73-4.9805 9.7656-14.648 14.941-9.5703 5.1758-23.047 5.1758zm0-22.363q9.2774 0 14.356-5.5664 5.0781-5.6641 5.0781-15.918v-16.797q0-10.156-5.0781-15.723-5.0781-5.5664-14.356-5.5664-9.2773 0-14.355 5.5664-5.0782 5.5664-5.0782 15.723v16.797q0 10.254 4.9805 15.918 5.0781 5.5664 14.453 5.5664z"/>
     <path d="m1083 378.59h23.34v101.37h-23.34zm60.059 39.941q0-9.082-4.8829-14.062-4.8828-4.9805-13.867-4.9805-8.5938 0-13.281 4.6875-4.6875 4.5898-4.6875 13.086l-2.0508-20.996q4.5899-9.375 11.524-14.258 7.0312-4.8828 16.504-4.8828 16.211 0 25.098 10.84 8.9844 10.742 8.9844 30.469v61.523h-23.34z"/>
     <path d="m1230.6 481.42q-13.477 0-23.145-5.1758-9.5703-5.1758-14.648-15.039-4.9805-9.9609-4.9805-23.926v-16.504q0-13.77 4.9805-23.535 5.0781-9.8633 14.648-14.941 9.668-5.1758 23.145-5.1758 13.476 0 23.047 5.1758 9.668 5.0781 14.648 14.941 5.0781 9.7656 5.0781 23.535v16.797q0 13.867-5.0781 23.73-4.9805 9.7656-14.648 14.941-9.5703 5.1758-23.047 5.1758zm0-22.363q9.2773 0 14.355-5.5664 5.0782-5.6641 5.0782-15.918v-16.797q0-10.156-5.0782-15.723-5.0781-5.5664-14.355-5.5664-9.2774 0-14.356 5.5664-5.0781 5.5664-5.0781 15.723v16.797q0 10.254 4.9804 15.918 5.0782 5.5664 14.453 5.5664z"/>
     <path d="m1415.4 420q0-9.8633-4.8828-15.137-4.8828-5.3711-13.867-5.3711-8.4961 0-13.184 5.1758-4.5898 5.0781-4.5898 14.551l-4.4922-21.484q4.7851-9.8633 12.5-15.234 7.8125-5.3711 17.285-5.3711 10.938 0 18.652 4.9805 7.8125 4.9805 11.816 14.648 4.1015 9.5703 4.1015 23.145v60.059h-23.34zm-119.63-41.406h23.34v101.37h-23.34zm59.863 41.406q0-9.8633-4.8828-15.137-4.7852-5.3711-13.672-5.3711-8.5938 0-13.281 4.6875-4.6875 4.5898-4.6875 13.086l-2.0507-20.996q4.5898-9.2773 11.719-14.16 7.1289-4.9805 16.309-4.9805 10.644 0 18.262 4.9805t11.524 14.648q4.0039 9.5703 4.0039 23.145v60.059h-23.242z"/>
     <path d="m1505.5 481.42q-14.355 0-24.512-5.2734-10.156-5.2734-15.527-15.43-5.3711-10.254-5.3711-24.707v-11.426q0-15.039 5.0781-25.684 5.1758-10.645 14.941-16.211 9.8633-5.5664 23.633-5.5664 12.988 0 22.168 6.543 9.2773 6.4453 14.062 18.75 4.8828 12.305 4.8828 29.688v6.6406h-68.848v-17.09h47.168l-0.098-1.0742q-0.9765-10.645-5.957-16.504-4.9805-5.8594-13.379-5.8594-10.547 0-16.309 6.6406-5.7617 6.543-5.7617 18.652v12.891q0 11.523 6.25 17.773 6.25 6.1523 17.578 6.1523 5.7617 0 11.328-2.1484 5.6641-2.2461 10.156-6.1524l15.234 14.258q-7.7149 7.2266-17.383 11.23-9.5704 3.9062-19.336 3.9062z"/>
     <path d="m1566.3 378.59h24.316v101.37h-24.316zm56.445 26.074q-2.3437-2.5391-5.7617-3.8086-3.418-1.3672-7.9101-1.3672-8.7891 0-13.672 5.2734-4.7852 5.1758-4.7852 14.453l-2.0508-22.949q4.3946-9.082 11.426-14.062 7.1289-5.0781 15.625-5.0781 6.6406 0 12.012 2.0508 5.3711 1.9531 9.375 5.8594z"/>
     <path d="m1684.9 481.42q-9.0821 0-17.285-1.6602-8.2031-1.7578-15.43-5.0781-7.1289-3.3203-12.891-8.1055l14.16-17.578q7.7148 5.4688 15.723 8.3008 8.1055 2.832 15.723 2.832 10.644 0 16.113-2.832 5.5665-2.9297 5.5665-8.3984 0-4.1992-2.7344-6.25-2.7344-2.1484-6.9336-2.9297-4.1016-0.78125-11.621-1.4648-1.2695-0.0976-2.6367-0.19531-1.3672-0.0977-2.6367-0.29297-0.3907 0-0.7813 0-0.3906-0.0977-0.7812-0.0977-10.645-1.1719-17.48-3.2226-6.836-2.1484-11.524-8.1055-4.5898-5.957-4.5898-17.09 0-10.449 4.5898-17.578 4.6875-7.2266 13.672-10.84 8.9844-3.7109 22.07-3.7109 7.8125 0 15.234 1.5625 7.4219 1.4648 14.16 4.3945 6.8359 2.832 12.891 7.1289l-13.965 16.992q-7.1289-4.2969-14.453-6.543-7.2265-2.2461-14.062-2.2461-9.1797 0-13.965 2.6367-4.7852 2.6367-4.7852 7.8125 0 3.3203 2.6367 5.0781 2.6368 1.7578 6.543 2.4414 4.0039 0.58594 11.523 1.2695 0.7813 0.0977 1.4649 0.19532 0.7812 0 1.5625 0.0976 0.293 0 0.6836 0t0.7812 0.0977q11.23 1.0742 18.652 3.2226 7.4219 2.1484 12.598 8.5938 5.1758 6.3477 5.1758 18.555 0 10.742-4.8828 18.164-4.8828 7.3242-14.551 11.133-9.5703 3.7109-23.535 3.7109z"/>
     <path d="m1734.6 337.96h23.828v33.301l-23.828 23.633z"/>
     <path d="m1870.1 481.42q-15.43 0-26.855-6.3476-11.328-6.4453-17.48-18.359-6.0547-11.914-6.0547-28.223v-38.965q0-16.309 6.0547-28.223 6.1523-11.914 17.48-18.359 11.426-6.4453 26.855-6.4453 12.793 0 23.145 5.4688 10.449 5.4688 17.285 15.82 6.9336 10.254 9.4727 24.316h-24.024q-1.7578-6.8359-5.5664-11.914-3.8086-5.1758-9.082-7.9102-5.1758-2.7344-11.23-2.7344-8.1054 0-14.062 3.7109-5.8593 3.6133-9.082 10.352-3.2226 6.7383-3.2226 15.918v38.965q0 9.1797 3.2226 15.918 3.2227 6.7383 9.082 10.352 5.9571 3.6133 14.062 3.6133 6.1524 0 11.328-2.6367 5.2734-2.6367 9.082-7.7148 3.8086-5.0781 5.4687-12.207h24.024q-2.6367 14.062-9.5703 24.414-6.836 10.254-17.285 15.723-10.352 5.4688-23.047 5.4688z"/>
     <path d="m1963.7 450.17q0 3.7109 1.8555 5.7617 1.8554 1.9531 5.2734 1.9531h6.9336v22.363h-12.695q-11.719 0-18.262-7.0312-6.4454-7.0312-6.4454-19.824v-115.43h23.34z"/>
     <path d="m2053 378.59h23.242v101.37h-23.242zm-36.328 61.621q0 8.9844 4.7851 13.965 4.7852 4.8828 13.477 4.8828t13.379-4.5898q4.6875-4.6875 4.6875-13.379l1.3672 21.68q-2.9297 7.9102-9.7656 13.281-6.836 5.3711-16.699 5.3711-16.504 0-25.586-10.645-8.9844-10.645-8.9844-30.078v-62.109h23.34z"/>
     <path d="m2148.4 481.42q-9.1797 0-15.918-4.4922-6.7383-4.5898-9.9609-12.891l1.3672-22.168q0 5.7617 2.0507 9.8633 2.0508 4.0039 5.9571 6.1524 3.9062 2.1484 9.4726 2.1484 8.6914 0 13.477-5.4688 4.7851-5.4688 4.7851-15.527v-19.043q0-10.254-4.7851-15.82-4.7852-5.6641-13.477-5.6641-5.5664 0-9.4726 2.1484-3.9063 2.0508-5.9571 6.1523-2.0507 4.1016-2.0507 9.8633l-2.0508-20.996q4.2968-8.8867 11.328-13.672 7.1289-4.8828 15.723-4.8828 10.742 0 18.359 4.9805 7.7149 4.9805 11.719 14.648 4.0039 9.5703 4.0039 23.145v19.141q0 13.379-4.1016 22.949-4.0039 9.4727-11.816 14.453-7.8125 4.9805-18.652 4.9805zm-47.852-143.46h23.34v141.99h-23.34z"/>
    </g>
   </g>
  </g>
 </g>
</svg>
