<?xml version="1.0" encoding="UTF-8"?>
<svg width="400" height="100" version="1.1" viewBox="0 0 400 100" xmlns="http://www.w3.org/2000/svg">
 <g fill="#fc0">
  <path d="m19.858 99.829c-1.4056-0.96844-1.6622-2.4393-1.9156-5.2451s1.5248-23.952 6.5281-47.599c1.8758-8.8668 3.7864-18.256 6.8311-25.843 1.7252-4.2999 2.9454-8.1322 4.6771-11.313 3.3642-6.1754 6.8642-9.8983 7.1722-9.8286 1.6026 0.36648 6.7699 4.0644 10.469 9.5666 3.697 5.5022 18.23 30.293 14.866 30.055-0.49006-0.03482-2.3361 0.14427-3.7235-1.1343-1.0033-0.92698-9.8692-15.105-11.44-17.346-1.7318-2.4675-7.1242-9.5517-8.9271-9.235-0.64238 0.11276-5.7218 7.129-9.3973 21.7-2.298 9.1172-4.6407 17.029-7.8129 36.015-3.1722 18.986-2.8626 18.215-2.2798 18.684 0.03642 0.02819 1.0513-0.52568 3.0447-1.6649 4.9652-2.839 9.5364-6.3214 13.593-10.358-0.07285 0.07131 1.596-1.3996 5.0033-4.4127 11.72-10.363 14.541-13.731 14.675-14.682 0.06291-0.44939-1.0662-3.0313-3.3858-7.7475-0.81622-1.6599 0.04801-3.6565 1.8162-4.1955 2.4934-0.75784 4.6059-1.2437 6.3361-1.4527 1.3079-0.15754 2.9404-0.03317 4.8973 0.37311 3.1722 0.65834 5.9106 2.6499 7.5165 5.469 1.1622 2.038 0.46026 0.80592 1.207 2.116 3.0629 5.3728 5.5927 11.033 7.5513 16.9 0.28146 0.84572-0.02152-0.06467 0.70861 2.1243 0.46689 1.3996 0.81457 2.8373 1.0397 4.2966 0.05464 0.35321 0.1904 1.2354 0.40894 2.645-3.9851-4.6084-7.7136-8.4788-11.185-11.611-3.4718-3.1342-6.6871-5.5287-9.6457-7.187-28.21 29.126-44.419 42.764-48.627 40.911" stroke-width="1.0604"/>
  <path d="m80.452 28.647c0.53475-1.6036 0.38409-3.8872 0-4.3052-1.6456-1.7911-6.4186 0.1592-19.269 4.3052-12.849 4.1459-18.506 6.1939-31.814 11.924-13.306 5.7297-19.061 8.6433-19.048 10.519 0.009933 1.8756 15.074 10.998 29.023 16.883 13.95 5.8839 23.141 9.1939 27.927 10.64 9.8358 2.9734 14.66 3.1177 14.566 4.078-0.09437 0.96019-7.7612 1.3068-13.051 0.59203-5.2895-0.71641-11.95-2.1309-22.903-6.1791-10.953-4.0464-9.6784-3.7728-21.858-9.5372-12.178-5.7661-24.205-16.005-24.02-17.316 0.18211-1.3101 17.648-12.575 45.084-22.908 15.988-6.0214 26.645-9.31 31.97-9.8672 3.1753-0.33167 6.3772-0.29684 9.5459 0.10448 1.1026 0.1393 0.01491 0.0017 1.2102 0.15257 2.1356 0.27031 3.3972 2.5356 2.5066 4.4991-0.93044 2.0481 0.12251-0.27031-0.29469 0.65008-2.8592 6.2967-7.2431 11.778-12.751 15.947-0.95692 0.7247 0.62416-0.47097-1.3178 0.99833-0.67712 0.51244-1.5546-0.3068-1.091-1.0199 3.0016-4.6053 4.8641-7.9916 5.5859-10.159z"/>
 </g>
 <text x="96.839165" y="45.584515" fill="#000000" font-family="Bahnschrift" font-size="45px" font-weight="600" letter-spacing="0px" style="line-height:1.25" xml:space="preserve"><tspan x="96.839165" y="45.584515" fill="#ffcc00" font-family="Bahnschrift" font-size="45px" font-weight="600"/></text>
 <g fill="#fc0">
  <path d="m115.22 36.031 2.5998-3.125 11.39 8.3203-2.5998 3.1445zm0.47457 8.1641q-3.1982 0-5.633-1.2891-2.4347-1.3086-3.7759-3.6719-1.3412-2.3828-1.3412-5.5078v-8.0469q0-3.125 1.3412-5.4883 1.3412-2.3828 3.7759-3.6719 2.4348-1.3086 5.633-1.3086t5.633 1.3086q2.4348 1.2891 3.7759 3.6719 1.3412 2.3633 1.3412 5.4883v8.0469q0 3.125-1.3412 5.5078-1.3412 2.3633-3.7759 3.6719-2.4348 1.2891-5.633 1.2891zm0-4.6289q1.692 0 2.9712-0.70312 1.2999-0.70312 2.0014-1.9922 0.70153-1.3086 0.70153-3.0078v-8.3203q0-1.6992-0.70153-2.9883-0.70155-1.3086-2.0014-2.0117-1.2793-0.70313-2.9712-0.70313t-2.9919 0.70313q-1.2793 0.70312-1.9808 2.0117-0.70153 1.2891-0.70153 2.9883v8.3203q0 1.6992 0.70153 3.0078 0.70155 1.2891 1.9808 1.9922 1.2999 0.70312 2.9919 0.70312z"/>
  <path d="m145.32 23.628h4.9108v20.273h-4.9108zm-7.6757 12.324q0 1.7969 1.011 2.793 1.011 0.97656 2.8474 0.97656t2.8268-0.91797q0.9904-0.9375 0.9904-2.6758l0.28888 4.3359q-0.619 1.582-2.0634 2.6562t-3.5283 1.0742q-3.4871 0-5.406-2.1289-1.8983-2.1289-1.8983-6.0156v-12.422h4.9314z"/>
  <path d="m165.19 44.195q-3.0332 0-5.179-1.0547-2.1459-1.0547-3.2807-3.0859-1.1348-2.0508-1.1348-4.9414v-2.2852q0-3.0078 1.0729-5.1367 1.0936-2.1289 3.1569-3.2422 2.084-1.1133 4.9933-1.1133 2.7443 0 4.6838 1.3086 1.9602 1.2891 2.9712 3.75 1.0317 2.4609 1.0317 5.9375v1.3281h-14.547v-3.418h9.966l-0.0207-0.21484q-0.20633-2.1289-1.2586-3.3008-1.0523-1.1719-2.8268-1.1719-2.2284 0-3.4458 1.3281-1.2174 1.3086-1.2174 3.7305v2.5781q0 2.3047 1.3206 3.5547 1.3205 1.2305 3.714 1.2305 1.2174 0 2.3935-0.42969 1.1968-0.44922 2.1459-1.2305l3.2188 2.8516q-1.63 1.4453-3.6728 2.2461-2.0221 0.78125-4.0854 0.78125z"/>
  <path d="m187.85 44.195q-3.0331 0-5.179-1.0547t-3.2807-3.0859q-1.1348-2.0508-1.1348-4.9414v-2.2852q0-3.0078 1.0729-5.1367 1.0936-2.1289 3.1569-3.2422 2.084-1.1133 4.9933-1.1133 2.7442 0 4.6838 1.3086 1.9602 1.2891 2.9712 3.75 1.0317 2.4609 1.0317 5.9375v1.3281h-14.547v-3.418h9.966l-0.0206-0.21484q-0.20634-2.1289-1.2586-3.3008-1.0523-1.1719-2.8268-1.1719-2.2284 0-3.4458 1.3281-1.2174 1.3086-1.2174 3.7305v2.5781q0 2.3047 1.3206 3.5547 1.3205 1.2305 3.714 1.2305 1.2174 0 2.3935-0.42969 1.1968-0.44922 2.1459-1.2305l3.2188 2.8516q-1.6301 1.4453-3.6728 2.2461-2.0221 0.78125-4.0854 0.78125z"/>
  <path d="m201.53 23.628h4.9314v20.273h-4.9314zm12.69 7.9883q0-1.8164-1.0317-2.8125-1.0317-0.99609-2.93-0.99609-1.8158 0-2.8062 0.9375-0.99041 0.91797-0.99041 2.6172l-0.43332-4.1992q0.96978-1.875 2.4348-2.8516 1.4856-0.97656 3.487-0.97656 3.4252 0 5.3028 2.168 1.8983 2.1484 1.8983 6.0938v12.305h-4.9314z"/>
  <path d="m222.45 15.503h5.0346v6.6602l-5.0346 4.7266z"/>
  <path d="m238.26 44.195q-1.9189 0-3.6521-0.33203-1.7332-0.35156-3.2601-1.0156-1.5062-0.66406-2.7236-1.6211l2.9919-3.5156q1.6301 1.0938 3.322 1.6602 1.7126 0.56641 3.322 0.56641 2.249 0 3.4045-0.56641 1.1761-0.58594 1.1761-1.6797 0-0.83984-0.57772-1.25-0.57776-0.42969-1.465-0.58594-0.86661-0.15625-2.4554-0.29297-0.26824-0.01953-0.55711-0.03906-0.28886-0.01953-0.55711-0.05859-0.0825 0-0.16506 0-0.0825-0.01953-0.16508-0.01953-2.249-0.23438-3.6934-0.64453-1.4444-0.42969-2.4348-1.6211-0.96977-1.1914-0.96977-3.418 0-2.0898 0.96977-3.5156 0.99042-1.4453 2.8887-2.168 1.8983-0.74219 4.6632-0.74219 1.6507 0 3.2188 0.3125 1.5682 0.29297 2.9919 0.87891 1.4443 0.56641 2.7236 1.4258l-2.9506 3.3984q-1.5062-0.85938-3.0538-1.3086-1.5269-0.44922-2.9712-0.44922-1.9395 0-2.9506 0.52734-1.011 0.52734-1.011 1.5625 0 0.66406 0.55712 1.0156 0.5571 0.35156 1.3824 0.48828 0.84597 0.11719 2.4347 0.2539 0.16507 0.01953 0.30952 0.03906 0.16506 0 0.33014 0.01953 0.0619 0 0.14443 0 0.0825 0 0.16506 0.01953 2.3728 0.21484 3.941 0.64453 1.5681 0.42969 2.6617 1.7188 1.0936 1.2695 1.0936 3.7109 0 2.1484-1.0317 3.6328-1.0317 1.4648-3.0744 2.2266-2.0221 0.74219-4.9727 0.74219z"/>
  <path d="m274.08 44.195q-3.2601 0-5.6742-1.2695-2.3935-1.2891-3.6934-3.6719-1.2793-2.3828-1.2793-5.6445v-7.793q0-3.2617 1.2793-5.6445 1.2999-2.3828 3.6934-3.6719 2.4142-1.2891 5.6742-1.2891 2.703 0 4.8901 1.0938 2.2078 1.0938 3.6522 3.1641 1.465 2.0508 2.0014 4.8633h-5.0758q-0.37142-1.3672-1.1761-2.3828-0.8047-1.0352-1.9189-1.582-1.0936-0.54688-2.3729-0.54688-1.7126 0-2.9712 0.74219-1.238 0.72266-1.9189 2.0703-0.68091 1.3477-0.68091 3.1836v7.793q0 1.8359 0.68091 3.1836 0.6809 1.3477 1.9189 2.0703 1.2586 0.72266 2.9712 0.72266 1.2999 0 2.3935-0.52734 1.1142-0.52734 1.9189-1.543 0.80469-1.0156 1.1555-2.4414h5.0758q-0.55709 2.8125-2.0221 4.8828-1.4443 2.0508-3.6521 3.1445-2.1872 1.0938-4.8695 1.0938z"/>
  <path d="m298.2 44.195q-2.8474 0-4.8902-1.0352-2.0221-1.0352-3.095-3.0078-1.0523-1.9922-1.0523-4.7852v-3.3008q0-2.7539 1.0523-4.707 1.073-1.9727 3.095-2.9883 2.0427-1.0352 4.8902-1.0352 2.8474 0 4.8695 1.0352 2.0427 1.0156 3.095 2.9883 1.0729 1.9531 1.0729 4.707v3.3594q0 2.7734-1.0729 4.7461-1.0523 1.9531-3.095 2.9883-2.0221 1.0352-4.8695 1.0352zm0-4.4727q1.9602 0 3.0331-1.1133 1.0729-1.1328 1.0729-3.1836v-3.3594q0-2.0312-1.0729-3.1445-1.073-1.1133-3.0331-1.1133-1.9602 0-3.0331 1.1133t-1.0729 3.1445v3.3594q0 2.0508 1.0523 3.1836 1.073 1.1133 3.0538 1.1133z"/>
  <path d="m317.74 37.945q0 0.74219 0.39202 1.1523 0.39204 0.39062 1.1142 0.39062h1.465v4.4727h-2.6824q-2.476 0-3.8585-1.4062-1.3618-1.4063-1.3618-3.9648v-23.086h4.9314z"/>
  <path d="m329.97 37.945q0 0.74219 0.39204 1.1523 0.39204 0.39062 1.1142 0.39062h1.465v4.4727h-2.6823q-2.476 0-3.8585-1.4062-1.3618-1.4063-1.3618-3.9648v-23.086h4.9314z"/>
  <path d="m346.25 44.195q-3.0331 0-5.179-1.0547t-3.2807-3.0859q-1.1348-2.0508-1.1348-4.9414v-2.2852q0-3.0078 1.0729-5.1367 1.0936-2.1289 3.1569-3.2422 2.084-1.1133 4.9933-1.1133 2.7442 0 4.6838 1.3086 1.9602 1.2891 2.9712 3.75 1.0317 2.4609 1.0317 5.9375v1.3281h-14.547v-3.418h9.966l-0.0206-0.21484q-0.20633-2.1289-1.2586-3.3008-1.0523-1.1719-2.8268-1.1719-2.2284 0-3.4458 1.3281-1.2174 1.3086-1.2174 3.7305v2.5781q0 2.3047 1.3205 3.5547 1.3206 1.2305 3.714 1.2305 1.2174 0 2.3935-0.42969 1.1968-0.44922 2.1459-1.2305l3.2188 2.8516q-1.63 1.4453-3.6728 2.2461-2.0221 0.78125-4.0854 0.78125z"/>
  <path d="m367.32 52.144q-2.476 0-4.4362-0.85938-1.9602-0.83984-3.0538-2.3828l3.322-2.8711q0.76346 0.91797 1.8364 1.4062 1.0936 0.48828 2.2697 0.48828 2.1046 0 3.322-1.0938 1.2174-1.0742 1.2174-3.0469v-20.156h4.9314v19.668q0 2.793-1.1142 4.7852-1.0936 1.9922-3.2188 3.0273-2.1046 1.0352-5.0758 1.0352zm-0.70156-7.9102q-2.311 0-3.9616-0.9961-1.63-1.0156-2.4966-2.9102-0.84598-1.9141-0.84598-4.6094v-3.8672q0-2.6953 0.84598-4.6094 0.84596-1.9336 2.4554-2.9297 1.63-1.0156 3.8997-1.0156 1.8157 0 3.3014 0.95703 1.5062 0.95703 2.4141 2.6953l-0.4333 4.3164q0-1.1719-0.4333-1.9922-0.43332-0.82031-1.2587-1.25-0.82534-0.42969-2.0014-0.42969-1.8364 0-2.8474 1.1328t-1.011 3.1641v3.8281q0 2.0117 1.011 3.125 1.011 1.0938 2.8474 1.0938 1.1761 0 2.0014-0.42969 0.82534-0.44922 1.2587-1.2695 0.4333-0.82031 0.4333-1.9727l0.28886 4.4531q-0.63963 1.582-2.0633 2.5586-1.4031 0.95703-3.4046 0.95703z"/>
  <path d="m391.69 44.195q-3.0331 0-5.179-1.0547t-3.2807-3.0859q-1.1348-2.0508-1.1348-4.9414v-2.2852q0-3.0078 1.073-5.1367 1.0936-2.1289 3.1569-3.2422 2.084-1.1133 4.9933-1.1133 2.7443 0 4.6838 1.3086 1.9602 1.2891 2.9712 3.75 1.0317 2.4609 1.0317 5.9375v1.3281h-14.547v-3.418h9.966l-0.0206-0.21484q-0.20634-2.1289-1.2586-3.3008-1.0523-1.1719-2.8268-1.1719-2.2284 0-3.4458 1.3281-1.2174 1.3086-1.2174 3.7305v2.5781q0 2.3047 1.3206 3.5547 1.3205 1.2305 3.714 1.2305 1.2174 0 2.3935-0.42969 1.1968-0.44922 2.1459-1.2305l3.2188 2.8516q-1.6301 1.4453-3.6728 2.2461-2.0221 0.78125-4.0854 0.78125z"/>
 </g>
 <g fill="#fc0">
  <path d="m112.33 58.967h3.0586l9.7734 25.559h-5.1855l-6.1172-17.455-6.1172 17.455h-5.1856zm-5.0801 16.822h13.447v4.6406h-13.447z"/>
  <path d="m134.96 84.79q-1.6348 0-3.1816-0.28125-1.5469-0.29883-2.9004-0.86133t-2.3906-1.3535l2.9707-3.709q1.3184 0.84375 2.7598 1.3008 1.4414 0.45703 2.7422 0.45703 1.6875 0 2.6191-0.36914 0.93164-0.38672 0.93164-1.0547 0-0.61524-0.4043-0.93164-0.40429-0.3164-1.0371-0.43945-0.63281-0.14062-1.7754-0.24609-0.3164-0.03516-0.65039-0.07031-0.3164-0.03516-0.65039-0.07031-0.0703-0.01758-0.1582-0.01758-0.0703-0.01758-0.14063-0.01758-2.0391-0.26367-3.2695-0.65039-1.2305-0.38672-2.0918-1.4766-0.84375-1.1074-0.84375-3.1992 0-1.8281 0.87891-3.1289t2.5488-1.9688q1.6699-0.68555 4.043-0.68555 1.3887 0 2.7598 0.28125 1.3887 0.28125 2.6543 0.8086 1.2656 0.52734 2.3379 1.2656l-2.8652 3.498q-1.1953-0.66797-2.4961-1.0371-1.3008-0.36914-2.4961-0.36914-1.459 0-2.2676 0.33398-0.80859 0.33398-0.80859 0.93164 0 0.45703 0.42187 0.7207 0.43946 0.24609 1.0723 0.36914 0.65039 0.10547 1.8809 0.24609 0.1582 0.01758 0.3164 0.03516 0.15821 0.01758 0.31641 0.03516 0.0703 0.01758 0.1582 0.01758t0.15821 0.01758q2.127 0.24609 3.4629 0.63281t2.2676 1.5469q0.94922 1.1602 0.94922 3.4102 0 1.8984-0.91407 3.252-0.91406 1.3535-2.6719 2.0742-1.7578 0.70312-4.2363 0.70312z"/>
  <path d="m151.74 84.614q-2.3906 0-3.5156-1.2129-1.1074-1.2305-1.1074-3.6211v-18.809h4.8164v17.613q0 0.66797 0.26367 1.0371 0.26367 0.35156 0.77344 0.35156h1.1953v4.6406zm-6.5039-18.334h8.9297v4.1133h-8.9297z"/>
  <path d="m158.39 66.28h5.168v18.246h-5.168zm10.266 5.0801q-0.35157-0.35156-0.86134-0.52734-0.50976-0.17578-1.1777-0.17578-1.459 0-2.2676 0.94922-0.79102 0.93164-0.79102 2.6016l-0.36914-4.7461q0.75586-1.6348 1.9512-2.5312 1.2129-0.91406 2.6543-0.91406 1.1426 0 2.0566 0.36914 0.93164 0.35156 1.6172 1.0547z"/>
  <path d="m180.75 84.79q-2.4961 0-4.2715-0.93164-1.7578-0.93164-2.6894-2.707-0.91406-1.793-0.91406-4.3066v-2.9707q0-2.4785 0.91406-4.2363 0.93164-1.7754 2.6894-2.6895 1.7754-0.93164 4.2715-0.93164t4.2539 0.93164q1.7754 0.91406 2.6895 2.6895 0.93163 1.7578 0.93163 4.2363v3.0234q0 2.4961-0.93163 4.2715-0.91407 1.7578-2.6895 2.6895-1.7578 0.93164-4.2539 0.93164zm-0.0176-4.6406q1.459 0 2.2676-0.84375 0.8086-0.86133 0.8086-2.4082v-3.0234q0-1.5293-0.8086-2.373t-2.2676-0.84375q-1.4414 0-2.25 0.84375-0.79101 0.84375-0.79101 2.373v3.0234q0 1.5469 0.79101 2.4082 0.79102 0.84375 2.25 0.84375z"/>
  <path d="m193.02 66.28h4.8164v18.246h-4.8164zm10.547 7.1895q0-1.3359-0.77343-2.0742-0.75585-0.73828-2.1621-0.73828-1.336 0-2.0742 0.75586-0.7207 0.73828-0.7207 2.0918l-0.36913-4.043q0.82617-1.7227 1.9688-2.584 1.1602-0.86133 2.9004-0.86133 2.8828 0 4.4648 1.9512 1.582 1.9336 1.582 5.4844v11.074h-4.8164z"/>
  <path d="m220.47 84.79q-2.4961 0-4.2715-0.93164-1.7578-0.93164-2.6895-2.707-0.91405-1.793-0.91405-4.3066v-2.9707q0-2.4785 0.91405-4.2363 0.93165-1.7754 2.6895-2.6895 1.7754-0.93164 4.2715-0.93164t4.2539 0.93164q1.7754 0.91406 2.6894 2.6895 0.93165 1.7578 0.93165 4.2363v3.0234q0 2.4961-0.93165 4.2715-0.91405 1.7578-2.6894 2.6895-1.7578 0.93164-4.2539 0.93164zm-0.0176-4.6406q1.459 0 2.2676-0.84375 0.80858-0.86133 0.80858-2.4082v-3.0234q0-1.5293-0.80858-2.373-0.8086-0.84375-2.2676-0.84375-1.4414 0-2.25 0.84375-0.79101 0.84375-0.79101 2.373v3.0234q0 1.5469 0.79101 2.4082 0.79102 0.84375 2.25 0.84375z"/>
  <path d="m254.01 73.997q0-1.5996-0.77343-2.4609-0.75585-0.87891-2.1621-0.87891-1.3887 0-2.1445 0.84375-0.73828 0.82617-0.73828 2.3555l-0.89648-4.2188q0.86133-1.7402 2.2324-2.6719 1.3887-0.94922 3.0762-0.94922 1.9688 0 3.3574 0.93164 1.4062 0.93164 2.127 2.7246 0.73829 1.793 0.73829 4.3066v10.547h-4.8164zm-21.27-7.7168h4.8164v18.246h-4.8164zm10.635 7.7168q0-1.5996-0.79102-2.4609-0.79101-0.87891-2.2324-0.87891-1.3359 0-2.0742 0.75586-0.7207 0.73828-0.7207 2.0918l-0.36913-4.043q0.80858-1.6875 2.0215-2.5664 1.2129-0.87891 2.8476-0.87891 1.9336 0 3.3047 0.93164 1.3887 0.93164 2.1094 2.7246 0.7207 1.793 0.7207 4.3066v10.547h-4.8164z"/>
  <path d="m271.4 84.79q-2.6367 0-4.5176-0.94922-1.8633-0.9668-2.8477-2.7949-0.98436-1.8457-0.98436-4.4297v-2.0566q0-2.707 0.93163-4.623 0.94922-1.916 2.7422-2.918 1.8105-1.002 4.3594-1.002 2.3906 0 4.0957 1.1953t2.584 3.4805q0.89649 2.2676 0.89649 5.4844v1.1953h-12.48v-3.252h8.0859l-0.0527-0.42188q-0.19335-1.582-1.002-2.4434-0.79102-0.86133-2.127-0.86133-1.7402 0-2.707 1.0371-0.94922 1.0371-0.94922 2.9355v2.3203q0 1.8633 1.0371 2.8828 1.0547 1.0195 2.9355 1.0195 0.9668 0 1.916-0.33398 0.94921-0.35156 1.7227-0.98438l3.1465 2.7949q-1.4238 1.3008-3.1992 2.0215-1.7754 0.70312-3.586 0.70312z"/>
  <path d="m282.88 66.28h5.168v18.246h-5.168zm10.266 5.0801q-0.35157-0.35156-0.86133-0.52734-0.50977-0.17578-1.1777-0.17578-1.459 0-2.2676 0.94922-0.79102 0.93164-0.79102 2.6016l-0.36913-4.7461q0.75587-1.6348 1.9512-2.5312 1.2129-0.91406 2.6543-0.91406 1.1426 0 2.0566 0.36914 0.93163 0.35156 1.6172 1.0547z"/>
  <path d="m305.22 84.79q-1.6348 0-3.1816-0.28125-1.5469-0.29883-2.9004-0.86133t-2.3906-1.3535l2.9707-3.709q1.3184 0.84375 2.7598 1.3008 1.4414 0.45703 2.7422 0.45703 1.6875 0 2.6192-0.36914 0.93163-0.38672 0.93163-1.0547 0-0.61524-0.4043-0.93164t-1.0371-0.43945q-0.63281-0.14062-1.7754-0.24609-0.3164-0.03516-0.65038-0.07031-0.31642-0.03516-0.6504-0.07031-0.0703-0.01758-0.1582-0.01758-0.0703-0.01758-0.14062-0.01758-2.0391-0.26367-3.2695-0.65039-1.2305-0.38672-2.0918-1.4766-0.84375-1.1074-0.84375-3.1992 0-1.8281 0.8789-3.1289 0.87891-1.3008 2.5488-1.9688 1.6699-0.68555 4.043-0.68555 1.3887 0 2.7598 0.28125 1.3887 0.28125 2.6543 0.8086 1.2656 0.52734 2.3379 1.2656l-2.8652 3.498q-1.1953-0.66797-2.4961-1.0371-1.3008-0.36914-2.4961-0.36914-1.459 0-2.2676 0.33398-0.80859 0.33398-0.80859 0.93164 0 0.45703 0.42187 0.7207 0.43945 0.24609 1.0723 0.36914 0.6504 0.10547 1.8809 0.24609 0.1582 0.01758 0.3164 0.03516t0.3164 0.03516q0.0703 0.01758 0.15822 0.01758 0.0879 0 0.1582 0.01758 2.127 0.24609 3.4629 0.63281 1.336 0.38672 2.2676 1.5469 0.94922 1.1602 0.94922 3.4102 0 1.8984-0.91407 3.252-0.91405 1.3535-2.6719 2.0742-1.7578 0.70312-4.2363 0.70312z"/>
  <path d="m314.54 58.967h4.8164v6.293l-4.8164 4.6055z"/>
  <path d="m341.34 84.79q-2.918 0-4.9922-1.1074-2.0742-1.125-3.1641-3.252-1.0898-2.1445-1.0898-5.168v-7.0137q0-3.0234 1.0898-5.1504 1.0898-2.1445 3.1641-3.2695 2.0742-1.125 4.9922-1.125 2.4082 0 4.3066 1.0371t3.1289 3.0234q1.248 1.9688 1.7226 4.7637h-4.9922q-0.28125-1.2656-0.8789-2.1621-0.58009-0.89648-1.4238-1.3711-0.82616-0.47461-1.8633-0.47461-1.3535 0-2.3027 0.5625-0.94922 0.54492-1.459 1.6172-0.49218 1.0547-0.49218 2.5488v7.0137q0 1.4941 0.49218 2.5488 0.50977 1.0547 1.459 1.6172 0.94921 0.54492 2.3027 0.54492 1.0547 0 1.8984-0.45703 0.84375-0.47461 1.4238-1.3711 0.58008-0.89648 0.84375-2.1797h4.9922q-0.49218 2.7949-1.7402 4.7813-1.2305 1.9688-3.1289 3.0059-1.8809 1.0371-4.2891 1.0371z"/>
  <path d="m359.36 78.497q0 0.66797 0.36913 1.0371 0.38672 0.35156 1.0898 0.35156h0.80858v4.6406h-2.4609q-2.1973 0-3.4102-1.2656t-1.2129-3.5684v-20.725h4.8164z"/>
  <path d="m375.27 66.28h4.7988v18.246h-4.7988zm-5.6602 11.092q0 1.3184 0.73828 2.0566 0.75587 0.7207 2.1094 0.7207 1.3535 0 2.0742-0.73828 0.73829-0.75586 0.73829-2.1445l0.24608 3.9902q-0.50975 1.4941-1.7051 2.5137-1.1777 1.0195-2.8828 1.0195-2.9356 0-4.5352-1.8809-1.5996-1.8984-1.5996-5.3613v-11.268h4.8164z"/>
  <path d="m393.87 84.79q-1.5996 0-2.7598-0.80859-1.1602-0.82617-1.7226-2.3203l0.2461-4.166q0 0.89648 0.3164 1.5293 0.3164 0.63281 0.91407 0.9668 0.61523 0.33398 1.4766 0.33398 1.3535 0 2.0918-0.89648 0.75587-0.89649 0.75587-2.5313v-2.9004q0-1.6699-0.75587-2.584-0.73828-0.93164-2.0918-0.93164-0.86132 0-1.4766 0.35156-0.59767 0.33398-0.91407 0.98438-0.3164 0.65039-0.3164 1.582l-0.36915-4.043q0.73828-1.5996 1.9336-2.4609 1.2129-0.87891 2.6719-0.87891 1.9336 0 3.3047 0.93164 1.3887 0.93164 2.1094 2.7246 0.7207 1.793 0.7207 4.3066v2.918q0 2.4961-0.7207 4.2715-0.7207 1.7578-2.1094 2.6895-1.3711 0.93164-3.3047 0.93164zm-9.0527-25.822h4.8164v25.559h-4.8164z"/>
 </g>
 <text fill="black" font-family="sans-serif" font-size="40px" style="line-height:1.25;shape-inside:url(#rect521329);white-space:pre" xml:space="preserve"/>
</svg>
