<svg width="32" height="32" xmlns="http://www.w3.org/2000/svg">

 <g>
  <title>background</title>
  <rect fill="none" id="canvas_background" height="402" width="582" y="-1" x="-1"/>
 </g>
 <g>
  <title fill="#eeeeee">Layer 1</title>
  <path id="svg_2" fill="#eeeeee" d="m23.598623,28.065676c-0.356833,0 -0.748281,-0.124191 -1.171686,-0.371637l-9.58918,-7.504229c-0.107405,-0.083736 -0.17309,-0.214516 -0.180191,-0.355642c-0.006214,-0.141127 0.047044,-0.277552 0.146461,-0.372578l11.358249,-10.833901c0.181967,-0.174057 0.462461,-0.159004 0.626673,0.034812c0.164213,0.192874 0.149124,0.490183 -0.032843,0.664241l-10.953484,10.449094l9.101868,7.12789c0.240549,0.136423 0.647089,0.30954 0.936459,0.167473c0.294697,-0.143011 0.440269,-0.599323 0.511282,-0.956846l3.883427,-19.397532c0.150898,-0.64072 0.078114,-1.156306 -0.190844,-1.393401c-0.205044,-0.180643 -0.510391,-0.193815 -0.840593,-0.035752l-22.826565,9.331364c-0.700348,0.298248 -0.920483,0.604967 -0.916933,0.706579c0.002663,0.066801 0.153562,0.251207 0.603596,0.397039l5.658709,1.872293l6.212597,-4.154799c0.207708,-0.137365 0.481102,-0.072447 0.611584,0.146772c0.130484,0.219217 0.069235,0.509941 -0.138472,0.648245l-6.385687,4.270527c-0.110067,0.073385 -0.245876,0.092201 -0.369258,0.051744l-5.851327,-1.93627c-1.038539,-0.336826 -1.216068,-0.931444 -1.228494,-1.256039c-0.017753,-0.445023 0.224573,-1.088564 1.479697,-1.621086l22.807925,-9.321954c0.618683,-0.299191 1.282639,-0.235213 1.752201,0.179702c0.544125,0.480775 0.721651,1.329423 0.487314,2.327666l-3.879877,19.379655c-0.163326,0.826067 -0.502405,1.370821 -1.009247,1.617323c-0.190844,0.093145 -0.395,0.139246 -0.613359,0.139246z"/>
  <path id="svg_3" fill="#eeeeee" d="m23.598623,28.065676c-0.356833,0 -0.748281,-0.124191 -1.171686,-0.371637l-5.964945,-4.66568c-0.197056,-0.154299 -0.23966,-0.449728 -0.093201,-0.657656c0.145573,-0.208868 0.424292,-0.25403 0.620459,-0.098789l5.915239,4.631811c0.240549,0.136423 0.647089,0.30954 0.936459,0.167473c0.294697,-0.143011 0.440269,-0.599323 0.511282,-0.956846l3.883427,-19.397532c0.150898,-0.64072 0.078114,-1.156306 -0.190844,-1.393401c-0.205044,-0.180643 -0.510391,-0.193815 -0.840593,-0.035752l-22.826565,9.331364c-0.700348,0.298248 -0.920483,0.604967 -0.916933,0.706579c0.002663,0.066801 0.153562,0.251207 0.603596,0.397039l5.853102,1.93627c0.140247,0.046103 0.249428,0.16371 0.292922,0.312365l2.01228,7.019691c0.054146,0.157122 0.095865,0.313303 0.132258,0.448786c0.028404,0.107256 0.06391,0.240858 0.087876,0.280373c-0.003551,-0.004704 0.06746,0.017876 0.256528,0.018818c0.396775,0 0.547674,-0.157122 0.849472,-0.468544l1.473483,-1.518536c0.175753,-0.182522 0.456247,-0.17688 0.627563,0.009409c0.170426,0.186289 0.166876,0.484541 -0.008877,0.665184l-1.448629,1.491247c-0.356832,0.369757 -0.734966,0.761148 -1.493011,0.761148c-0.869887,0 -1.045641,-0.408329 -1.199202,-0.984129c-0.031068,-0.116667 -0.066573,-0.251207 -0.119832,-0.406448l-1.951035,-6.805176l-5.626753,-1.861944c-1.038539,-0.336826 -1.216068,-0.931444 -1.228494,-1.256039c-0.017753,-0.445023 0.224573,-1.088564 1.479697,-1.621086l22.807925,-9.321954c0.618683,-0.299191 1.282639,-0.235213 1.752201,0.179702c0.544125,0.480775 0.721651,1.329423 0.487314,2.327666l-3.879877,19.379655c-0.163326,0.826067 -0.502405,1.370821 -1.009247,1.617323c-0.190844,0.093145 -0.395,0.139246 -0.613359,0.139246z"/>
  <path id="svg_10" fill="#eeeeee" d="m17.975657,12.876406c0,0.275 -0.225,0.5 -0.5,0.5l0,0c-0.275,0 -0.5,-0.225 -0.5,-0.5l0,0c0,-0.275 0.225,-0.5 0.5,-0.5l0,0c0.275,0 0.5,0.225 0.5,0.5l0,0z"/>
 </g>
</svg>