<?xml version="1.0" encoding="UTF-8"?>
<svg xmlns="http://www.w3.org/2000/svg" xmlns:xlink="http://www.w3.org/1999/xlink" width="100pt" height="100pt" viewBox="0 0 100 100" version="1.1">
<g id="surface1">
<path style=" stroke:none;fill-rule:nonzero;fill:rgb(93.333333%,93.333333%,93.333333%);fill-opacity:1;" d="M 73.746094 87.707031 C 72.628906 87.707031 71.40625 87.316406 70.085938 86.542969 L 40.117188 63.09375 C 39.78125 62.832031 39.578125 62.421875 39.554688 61.980469 C 39.535156 61.539062 39.703125 61.113281 40.011719 60.816406 L 75.507812 26.960938 C 76.074219 26.417969 76.953125 26.464844 77.464844 27.070312 C 77.980469 27.671875 77.929688 28.601562 77.363281 29.144531 L 43.132812 61.800781 L 71.578125 84.074219 C 72.328125 84.5 73.597656 85.042969 74.503906 84.597656 C 75.425781 84.152344 75.878906 82.726562 76.101562 81.605469 L 88.238281 20.988281 C 88.707031 18.988281 88.480469 17.375 87.640625 16.636719 C 87 16.070312 86.046875 16.03125 85.011719 16.523438 L 13.679688 45.683594 C 11.492188 46.617188 10.804688 47.574219 10.816406 47.890625 C 10.824219 48.101562 11.292969 48.675781 12.699219 49.132812 L 30.382812 54.984375 L 49.796875 42 C 50.449219 41.570312 51.300781 41.773438 51.710938 42.460938 C 52.117188 43.144531 51.925781 44.050781 51.277344 44.484375 L 31.320312 57.832031 C 30.976562 58.058594 30.554688 58.117188 30.167969 57.992188 L 11.882812 51.941406 C 8.636719 50.886719 8.082031 49.03125 8.042969 48.015625 C 7.988281 46.625 8.746094 44.613281 12.667969 42.949219 L 83.941406 13.820312 C 85.875 12.882812 87.949219 13.082031 89.417969 14.378906 C 91.117188 15.882812 91.671875 18.535156 90.941406 21.65625 L 78.816406 82.214844 C 78.304688 84.796875 77.246094 86.5 75.664062 87.269531 C 75.066406 87.5625 74.429688 87.707031 73.746094 87.707031 Z M 73.746094 87.707031 "/>
<path style=" stroke:none;fill-rule:nonzero;fill:rgb(93.333333%,93.333333%,93.333333%);fill-opacity:1;" d="M 73.746094 87.707031 C 72.628906 87.707031 71.40625 87.316406 70.085938 86.542969 L 51.445312 71.964844 C 50.828125 71.480469 50.695312 70.558594 51.152344 69.910156 C 51.605469 69.253906 52.476562 69.113281 53.089844 69.601562 L 71.578125 84.074219 C 72.328125 84.5 73.597656 85.042969 74.503906 84.597656 C 75.425781 84.152344 75.878906 82.722656 76.101562 81.605469 L 88.238281 20.988281 C 88.707031 18.988281 88.480469 17.375 87.640625 16.636719 C 87 16.070312 86.046875 16.03125 85.011719 16.523438 L 13.679688 45.683594 C 11.492188 46.617188 10.804688 47.574219 10.816406 47.890625 C 10.824219 48.101562 11.292969 48.675781 12.699219 49.132812 L 30.992188 55.183594 C 31.429688 55.328125 31.769531 55.695312 31.90625 56.160156 L 38.195312 78.097656 C 38.363281 78.585938 38.496094 79.074219 38.609375 79.5 C 38.699219 79.835938 38.808594 80.25 38.882812 80.375 C 38.871094 80.359375 39.09375 80.429688 39.683594 80.433594 C 40.925781 80.433594 41.398438 79.941406 42.339844 78.96875 L 46.945312 74.222656 C 47.492188 73.652344 48.371094 73.671875 48.90625 74.253906 C 49.4375 74.835938 49.425781 75.769531 48.878906 76.332031 L 44.351562 80.992188 C 43.234375 82.148438 42.054688 83.371094 39.683594 83.371094 C 36.96875 83.371094 36.417969 82.09375 35.9375 80.296875 C 35.839844 79.929688 35.730469 79.511719 35.5625 79.027344 L 29.464844 57.757812 L 11.882812 51.941406 C 8.636719 50.886719 8.082031 49.03125 8.042969 48.015625 C 7.988281 46.625 8.746094 44.613281 12.667969 42.949219 L 83.941406 13.820312 C 85.875 12.882812 87.949219 13.082031 89.417969 14.378906 C 91.117188 15.882812 91.671875 18.535156 90.941406 21.65625 L 78.816406 82.214844 C 78.304688 84.796875 77.246094 86.5 75.664062 87.269531 C 75.066406 87.5625 74.429688 87.707031 73.746094 87.707031 Z M 73.746094 87.707031 "/>
<path style=" stroke:none;fill-rule:nonzero;fill:rgb(93.333333%,93.333333%,93.333333%);fill-opacity:1;" d="M 56.175781 40.238281 C 56.175781 41.097656 55.472656 41.800781 54.613281 41.800781 C 53.753906 41.800781 53.050781 41.097656 53.050781 40.238281 C 53.050781 39.378906 53.753906 38.675781 54.613281 38.675781 C 55.472656 38.675781 56.175781 39.378906 56.175781 40.238281 Z M 56.175781 40.238281 "/>
</g>
</svg>
